<svg xmlns="http://www.w3.org/2000/svg" viewBox="0 0 24 24" fill="currentColor"><path d="M10.204 14.35l.007.01-.999 2.413a5.171 5.171 0 0 1-2.075-2.597l2.578-.437.004.005a.44.44 0 0 1 .484.606zm-.833-2.129a.44.44 0 0 0 .173-.756l.002-.011L7.585 9.7a5.143 5.143 0 0 0-.73 3.255l2.514-.725.002-.009zm1.145-1.98a.44.44 0 0 0 .699-.337l.01-.005.15-2.62a5.144 5.144 0 0 0-3.01 1.442l2.147 1.523.004-.002zm.76 2.75l.723.349.722-.347.18-.78-.5-.623h-.804l-.5.623.179.779zm1.5-3.095a.44.44 0 0 0 .7.336l.008.003 2.134-1.513a5.188 5.188 0 0 0-2.992-1.442l.148 2.615.002.001zm1.145 1.98a.44.44 0 0 0 .173.755l.002.01 2.518.726a5.194 5.194 0 0 0-.731-3.254l-1.96 1.755-.002.008zm.185 1.973a.44.44 0 0 0 .484-.606l.007-.012-.999-2.413a5.188 5.188 0 0 0-2.074 2.597l2.578.437.004-.003zM12 16.878a.44.44 0 0 0-.44.44v2.677a5.16 5.16 0 0 0 2.895-1.02l-1.963-1.888a.44.44 0 0 0-.492-.209zm0-9.76a.44.44 0 0 0 .493-.208l1.965-1.89a5.17 5.17 0 0 0-2.898-1.02v2.678c.243 0 .44.196.44.44zm-1.523 9.76a.44.44 0 0 0-.492.209l-1.962 1.889a5.17 5.17 0 0 0 2.895 1.02v-2.678a.44.44 0 0 0-.44-.44zm0-9.76a.44.44 0 0 0-.44-.44V4.01a5.16 5.16 0 0 0-2.895 1.02l1.962 1.888a.44.44 0 0 0 .493.209zM12 0C5.383 0 0 5.383 0 12s5.383 12 12 12 12-5.383 12-12S18.617 0 12 0z"/></svg>